<?xml version="1.0" encoding="utf-8"?><svg xmlns="http://www.w3.org/2000/svg" xmlns:xlink="http://www.w3.org/1999/xlink" width="1879" height="939" preserveAspectRatio="xMidYMid" viewBox="0 0 1879 939" style="z-index:1;margin-right:-2px;display:block;background-repeat-y:initial;background-repeat-x:initial;background-color:rgb(243, 183, 46);animation-play-state:paused" ><g transform="translate(939.5,469.5) scale(1,1) translate(-939.5,-469.5)" style="transform:matrix(1, 0, 0, 1, 0, 0);animation-play-state:paused" ><path d="M -100 315.27 C -49.69 311.51 -50.17 319.14 -1 319.14 S 50.64 316.85 98 316.85 S 148.4 312.6 197 312.6 S 248.46 313.93 296 313.93 S 346.99 315.82 395 315.82 S 445.1 326.55 494 326.55 S 544.75 326.66 593 326.66 S 642.87 326.38 692 326.38 S 743.49 310.03 791 310.03 S 842.55 324.12 890 324.12 S 940.26 327.6 989 327.6 S 1040.28 321.21 1088 321.21 S 1137.94 320.78 1187 320.78 S 1237.95 327.28 1286 327.28 S 1337.45 315.54 1385 315.54 S 1434.58 325.81 1484 325.81 S 1535.03 321.43 1583 321.43 S 1633.73 325.02 1682 325.02 S 1733.02 318.78 1781 318.78 S 1831.18 318.51 1880 318.51 S 1929.92 329.84 1979 329.84 S 2029.03 327.23 2078 327.23 L 1979 939 L -100 939 Z" fill="#4686f4" stroke-width="0" transform="matrix(1,0,0,1,0,0)" style="transform:matrix(1, 0, 0, 1, 0, 0);animation-play-state:paused" ></path>
<path d="M -100 374.49 C -48.52 387.95 -47.8 400.24 2.85 400.24 S 55.19 389.81 105.7 389.81 S 158.77 392.21 208.54 392.21 S 260.31 384.32 311.39 384.32 S 362.92 384.16 414.24 384.16 S 467.59 372.67 517.09 372.67 S 570.54 397.87 619.94 397.87 S 672.64 396.91 722.78 396.91 S 775.9 388.65 825.63 388.65 S 877.65 376.42 928.48 376.42 S 980.64 383.98 1031.33 383.98 S 1084.42 393.72 1134.18 393.72 S 1187.57 380.63 1237.02 380.63 S 1288.93 384.52 1339.87 384.52 S 1393.36 387.57 1442.72 387.57 S 1495.45 374.12 1545.57 374.12 S 1598.02 385.86 1648.42 385.86 S 1701.18 376.69 1751.27 376.69 S 1803.79 400.14 1854.11 400.14 S 1906.28 388.06 1956.96 388.06 S 2009.64 395.4 2059.81 395.4 L 1979 939 L -100 939 Z" fill="#3f78de" stroke-width="0" transform="matrix(1,0,0,1,2.088069438934326,0)" style="transform:matrix(1, 0, 0, 1, 2.08807, 0);animation-play-state:paused" ></path>
<path d="M -100 451.67 C -45.23 451.58 -45.98 461.62 7.01 461.62 S 61.64 449.21 114.01 449.21 S 168 452.16 221.02 452.16 S 276.66 441.93 328.03 441.93 S 382.56 441.8 435.04 441.8 S 490.14 438.72 542.04 438.72 S 597.67 464.74 649.05 464.74 S 702.78 439 756.06 439 S 810.3 448.48 863.07 448.48 S 917.71 438.71 970.07 438.71 S 1024.25 453.57 1077.08 453.57 S 1132.38 432.57 1184.09 432.57 S 1238.62 469.2 1291.1 469.2 S 1344.71 432.32 1398.1 432.32 S 1451.71 468.92 1505.11 468.92 S 1559.85 446.85 1612.12 446.85 S 1666.8 437.24 1719.13 437.24 S 1772.7 451.94 1826.13 451.94 S 1880.04 468.65 1933.14 468.65 S 1986.76 435.72 2040.15 435.72 L 1979 939 L -100 939 Z" fill="#3769c9" stroke-width="0" transform="matrix(1,0,0,1,6.014995574951172,0)" style="transform:matrix(1, 0, 0, 1, 6.015, 0);animation-play-state:paused" ></path>
<path d="M -100 501.56 C -42.52 507.68 -43.97 527.02 11.52 527.02 S 68.75 498.12 123.03 498.12 S 180.16 520.91 234.55 520.91 S 292.28 512.22 346.07 512.22 S 402.4 529.26 457.59 529.26 S 514.94 497.56 569.1 497.56 S 626.2 532.06 680.62 532.06 S 736.97 501.77 792.14 501.77 S 848.71 533.47 903.66 533.47 S 961.5 493.72 1015.17 493.72 S 1071.88 530.27 1126.69 530.27 S 1182.64 492.8 1238.21 492.8 S 1294.14 524.02 1349.72 524.02 S 1405.88 500.97 1461.24 500.97 S 1518.36 519.36 1572.76 519.36 S 1628.87 506.06 1684.28 506.06 S 1741.12 521.37 1795.79 521.37 S 1852.09 494.49 1907.31 494.49 S 1963.77 528.19 2018.83 528.19 L 1979 939 L -100 939 Z" fill="#2f5cb3" stroke-width="0" transform="matrix(1,0,0,1,9.378473281860352,0)" style="transform:matrix(1, 0, 0, 1, 9.37847, 0);animation-play-state:paused" ></path>
<path d="M -100 570.04 C -41.42 558.67 -41.22 591.34 16.42 591.34 S 75.26 556.78 132.85 556.78 S 192.34 591.69 249.27 591.69 S 308.21 554.09 365.7 554.09 S 424.02 595.2 482.12 595.2 S 541.83 551.66 598.54 551.66 S 657.27 587.34 714.97 587.34 S 773.88 552.48 831.39 552.48 S 890.3 590.35 947.82 590.35 S 1007.33 564.42 1064.24 564.42 S 1122.48 605.68 1180.66 605.68 S 1239.61 557.63 1297.09 557.63 S 1355.88 586.69 1413.51 586.69 S 1473.65 565.94 1529.94 565.94 S 1589.7 591.68 1646.36 591.68 S 1706.46 557.17 1762.78 557.17 S 1821.47 562.53 1879.21 562.53 S 1939.45 553.71 1995.63 553.71 L 1979 939 L -100 939 Z" fill="#264e9f" stroke-width="0" transform="matrix(1,0,0,1,9.378474235534668,0)" style="transform:matrix(1, 0, 0, 1, 9.37847, 0);animation-play-state:paused" ></path>
<path d="M -100 612.24 C -38.77 616 -37.31 660.91 21.78 660.91 S 83.94 615.04 143.56 615.04 S 206.32 661.42 265.35 661.42 S 327.9 632.51 387.13 632.51 S 449.47 663.95 508.91 663.95 S 570.04 672.56 630.69 672.56 S 692.01 664.66 752.48 664.66 S 814.43 625.17 874.26 625.17 S 936.24 662.24 996.04 662.24 S 1058.08 626.31 1117.82 626.31 S 1180.5 657.76 1239.61 657.76 S 1301.26 628.86 1361.39 628.86 S 1424.11 661.33 1483.17 661.33 S 1545.25 616.7 1604.95 616.7 S 1666.87 665.73 1726.74 665.73 S 1788.53 627.63 1848.52 627.63 S 1911.03 628.92 1970.3 628.92 S 2032.46 623.21 2092.08 623.21 L 1979 939 L -100 939 Z" fill="#1e418b" stroke-width="0" transform="matrix(1,0,0,1,6.015000343322754,0)" style="transform:matrix(1, 0, 0, 1, 6.015, 0);animation-play-state:paused" ></path>
<path d="M -100 684.07 C -34.77 689.93 -34.64 688.9 27.66 688.9 S 92.23 687.04 155.32 687.04 S 219.4 736.45 282.97 736.45 S 348 688.73 410.63 688.73 S 474.94 740.79 538.29 740.79 S 602.56 689.83 665.95 689.83 S 730.46 743.38 793.61 743.38 S 857.51 677.37 921.26 677.37 S 985.84 743.01 1048.92 743.01 S 1113.78 674.22 1176.58 674.22 S 1242.09 727.96 1304.24 727.96 S 1370.03 677.29 1431.89 677.29 S 1496.33 744.73 1559.55 744.73 S 1623.78 691.19 1687.21 691.19 S 1752.31 727.25 1814.87 727.25 S 1879.3 687.28 1942.53 687.28 S 2008.26 729.38 2070.18 729.38 L 1979 939 L -100 939 Z" fill="#143577" stroke-width="0" transform="matrix(1,0,0,1,2.0880703926086426,0)" style="transform:matrix(1, 0, 0, 1, 2.08807, 0);animation-play-state:paused" ></path></g></svg>